<svg width="137" height="28" viewBox="0 0 137 28" fill="none" xmlns="http://www.w3.org/2000/svg">
<path d="M10.8493 8.44326C8.49706 8.44326 6.71508 9.29953 5.75281 10.6196V1.80715H0.40686V26.7817H5.75281V17.0417C5.75281 14.5085 7.10711 13.3668 9.0673 13.3668C10.778 13.3668 12.1679 14.4015 12.1679 16.6135V26.7817H17.5139V15.8286C17.5139 11.0121 14.4489 8.44326 10.8493 8.44326Z" fill="#54575A"/>
<path d="M34.1222 8.94275V10.6196C32.9461 9.26385 31.1998 8.44326 28.8119 8.44326C24.1431 8.44326 20.2941 12.5462 20.2941 17.8622C20.2941 23.1783 24.1431 27.2812 28.8119 27.2812C31.1998 27.2812 32.9461 26.4606 34.1222 25.1049V26.7817H39.4682V8.94275H34.1222ZM29.8811 22.215C27.422 22.215 25.64 20.5381 25.64 17.8622C25.64 15.1864 27.422 13.5095 29.8811 13.5095C32.3403 13.5095 34.1222 15.1864 34.1222 17.8622C34.1222 20.5381 32.3403 22.215 29.8811 22.215Z" fill="#54575A"/>
<path d="M54.0465 8.44326C51.6586 8.44326 49.9123 9.26385 48.7362 10.6196V1.80715H43.3902V26.7817H48.7362V25.1049C49.9123 26.4606 51.6586 27.2812 54.0465 27.2812C58.7153 27.2812 62.5644 23.1783 62.5644 17.8622C62.5644 12.5462 58.7153 8.44326 54.0465 8.44326ZM52.9773 22.215C50.5182 22.215 48.7362 20.5381 48.7362 17.8622C48.7362 15.1864 50.5182 13.5095 52.9773 13.5095C55.4364 13.5095 57.2184 15.1864 57.2184 17.8622C57.2184 20.5381 55.4364 22.215 52.9773 22.215Z" fill="#54575A"/>
<path d="M68.2684 7.37292C70.0147 7.37292 71.4759 5.91012 71.4759 4.1619C71.4759 2.41368 70.0147 0.950884 68.2684 0.950884C66.522 0.950884 65.0608 2.41368 65.0608 4.1619C65.0608 5.91012 66.522 7.37292 68.2684 7.37292ZM65.5954 26.7817H70.9413V8.94275H65.5954V26.7817Z" fill="#54575A"/>
<path d="M85.2958 14.0804V8.94275H81.6249V3.94783L76.2789 5.55334V8.94275H73.4278V14.0804H76.2789V20.3954C76.2789 25.3903 78.3104 27.4953 85.2958 26.7817V21.9295C82.9436 22.0722 81.6249 21.9295 81.6249 20.3954V14.0804H85.2958Z" fill="#54575A"/>
<path d="M100.182 8.94275V18.6828C100.182 21.216 98.828 22.3577 96.8678 22.3577C95.1571 22.3577 93.7671 21.323 93.7671 19.111V8.94275H88.4212V19.8959C88.4212 24.7124 91.4862 27.2812 95.0858 27.2812C97.438 27.2812 99.22 26.425 100.182 25.1049V26.7817H105.528V8.94275H100.182Z" fill="#54575A"/>
<path d="M122.386 8.94275V10.6196C121.21 9.26385 119.464 8.44326 117.076 8.44326C112.407 8.44326 108.558 12.5462 108.558 17.8622C108.558 23.1783 112.407 27.2812 117.076 27.2812C119.464 27.2812 121.21 26.4606 122.386 25.1049V26.7817H127.732V8.94275H122.386ZM118.145 22.215C115.686 22.215 113.904 20.5381 113.904 17.8622C113.904 15.1864 115.686 13.5095 118.145 13.5095C120.604 13.5095 122.386 15.1864 122.386 17.8622C122.386 20.5381 120.604 22.215 118.145 22.215Z" fill="#54575A"/>
<path d="M131.654 26.7817H137V0.736816H131.654V26.7817Z" fill="#54575A"/>
</svg>
