<svg width="42" height="48" viewBox="0 0 42 48" fill="none" xmlns="http://www.w3.org/2000/svg">
<path fill-rule="evenodd" clip-rule="evenodd" d="M9.46686 6.60108C11.4862 3.20875 15.0798 0.252563 20.7378 0.252563C26.3959 0.252563 29.9894 3.20875 32.0088 6.60108C33.9468 9.85679 34.5484 13.6282 34.5484 16.1318H38.4054C40.3655 16.1318 41.8232 17.8367 41.4031 19.6378L35.342 45.622C35.0331 46.9465 33.7859 47.8903 32.3444 47.8903H9.13129C7.68979 47.8903 6.44256 46.9465 6.1336 45.622L0.0725437 19.6378C-0.347566 17.8367 1.11018 16.1318 3.07023 16.1318H6.92727C6.92727 13.6282 7.52881 9.85679 9.46686 6.60108ZM26.6533 9.4224C27.9377 11.5801 28.4103 14.3047 28.4103 16.1318H13.0653C13.0653 14.3047 13.5379 11.5801 14.8223 9.4224C16.0254 7.40135 17.8026 6.02683 20.7378 6.02683C23.673 6.02683 25.4502 7.40135 26.6533 9.4224ZM20.7378 34.256C24.1094 34.256 27.1249 32.8222 29.1332 30.5675L33.0139 34.2182C30.0059 37.4006 25.6207 39.4055 20.7378 39.4055C15.8549 39.4055 11.4697 37.4006 8.46177 34.2182L12.3424 30.5675C14.3507 32.8222 17.3663 34.256 20.7378 34.256Z" fill="#26A67C"/>
<path fill-rule="evenodd" clip-rule="evenodd" d="M9.46686 6.60108C11.4862 3.20875 15.0798 0.252563 20.7378 0.252563C26.3959 0.252563 29.9894 3.20875 32.0088 6.60108C33.9468 9.85679 34.5484 13.6282 34.5484 16.1318H38.4054C40.3655 16.1318 41.8232 17.8367 41.4031 19.6378L35.342 45.622C35.0331 46.9465 33.7859 47.8903 32.3444 47.8903H9.13129C7.68979 47.8903 6.44256 46.9465 6.1336 45.622L0.0725437 19.6378C-0.347566 17.8367 1.11018 16.1318 3.07023 16.1318H6.92727C6.92727 13.6282 7.52881 9.85679 9.46686 6.60108ZM26.6533 9.4224C27.9377 11.5801 28.4103 14.3047 28.4103 16.1318H13.0653C13.0653 14.3047 13.5379 11.5801 14.8223 9.4224C16.0254 7.40135 17.8026 6.02683 20.7378 6.02683C23.673 6.02683 25.4502 7.40135 26.6533 9.4224ZM20.7378 34.256C24.1094 34.256 27.1249 32.8222 29.1332 30.5675L33.0139 34.2182C30.0059 37.4006 25.6207 39.4055 20.7378 39.4055C15.8549 39.4055 11.4697 37.4006 8.46177 34.2182L12.3424 30.5675C14.3507 32.8222 17.3663 34.256 20.7378 34.256Z" fill="#FAB131"/>
</svg>
